<?xml version="1.0" standalone="no"?>
<!DOCTYPE svg PUBLIC "-//W3C//DTD SVG 20010904//EN"
 "http://www.w3.org/TR/2001/REC-SVG-20010904/DTD/svg10.dtd">
<svg version="1.0" xmlns="http://www.w3.org/2000/svg"
 width="500.000000pt" height="500.000000pt" viewBox="0 0 500.000000 500.000000"
 preserveAspectRatio="xMidYMid meet">

<g transform="translate(0.000000,500.000000) scale(0.100000,-0.100000)"
fill="#000000" stroke="none">
<path d="M2067 3222 c-626 -626 -582 -563 -469 -675 112 -111 51 -152 655 451
285 284 527 532 538 549 28 45 19 65 -59 146 -53 53 -73 67 -97 67 -26 0 -94
-64 -568 -538z"/>
<path d="M2709 3152 c-111 -109 -130 -76 269 -475 398 -398 365 -379 475 -269
109 109 127 76 -271 474 -397 397 -362 378 -473 270z"/>
<path d="M2162 2608 c-139 -139 -260 -265 -268 -280 -22 -42 -9 -70 66 -142
50 -49 75 -66 96 -66 22 0 61 33 204 175 100 99 185 175 195 175 11 0 87 -68
175 -155 126 -125 161 -155 184 -155 19 0 46 17 91 57 76 67 93 100 76 141 -7
16 -119 135 -249 265 -229 228 -239 237 -277 237 -38 0 -48 -9 -293 -252z"/>
<path d="M1320 1711 l0 -131 98 0 c119 0 142 11 142 70 0 28 -6 43 -19 51 -18
12 -18 12 0 30 25 25 24 61 -2 85 -17 15 -40 20 -120 22 l-99 4 0 -131z m155
49 c0 -10 -12 -16 -37 -18 -33 -3 -38 0 -38 18 0 18 5 21 38 18 25 -2 37 -8
37 -18z m5 -100 c0 -17 -7 -20 -40 -20 -33 0 -40 3 -40 20 0 17 7 20 40 20 33
0 40 -3 40 -20z"/>
<path d="M1590 1833 c0 -5 21 -39 45 -77 39 -60 45 -76 45 -123 l0 -53 45 0
45 0 0 51 c0 43 7 62 45 123 25 40 45 76 45 80 0 4 -19 6 -42 4 -38 -3 -45 -7
-63 -40 -11 -21 -23 -38 -27 -38 -4 0 -17 18 -29 40 -21 37 -26 40 -66 40 -24
0 -43 -3 -43 -7z"/>
<path d="M1880 1805 c0 -35 0 -35 45 -35 l45 0 0 -95 0 -95 40 0 40 0 0 95 0
95 40 0 c39 0 40 1 40 35 l0 35 -125 0 -125 0 0 -35z"/>
<path d="M2170 1710 l0 -130 110 0 110 0 0 30 0 30 -70 0 c-63 0 -70 2 -70 20
0 18 7 20 60 20 l60 0 0 30 0 30 -60 0 c-53 0 -60 2 -60 20 0 18 7 20 70 20
l70 0 0 30 0 30 -110 0 -110 0 0 -130z"/>
<path d="M2567 1834 c-4 -4 -7 -63 -7 -131 l0 -123 45 0 c44 0 45 1 45 33 0
22 7 36 21 45 24 16 21 18 48 -35 21 -42 22 -43 72 -43 51 0 51 0 37 23 -9 12
-30 46 -48 75 l-32 53 41 49 c22 27 41 51 41 54 0 3 -20 6 -44 6 -42 0 -48 -4
-88 -51 l-43 -51 -5 48 c-5 48 -6 49 -40 52 -20 2 -39 0 -43 -4z"/>
<path d="M2877 1833 c-4 -3 -7 -62 -7 -130 l0 -123 40 0 39 0 3 60 3 60 49
-60 c45 -54 53 -60 88 -60 l38 0 0 130 0 130 -40 0 -39 0 -3 -61 -3 -62 -50
61 c-41 50 -56 61 -81 61 -17 1 -34 -2 -37 -6z"/>
<path d="M3233 1820 c-37 -22 -50 -43 -54 -85 -5 -65 1 -87 35 -121 30 -30 40
-34 89 -34 31 0 67 4 81 10 57 21 85 125 51 189 -29 58 -139 80 -202 41z m121
-62 c34 -48 8 -118 -43 -118 -15 0 -32 5 -39 12 -18 18 -15 94 4 112 22 23 60
20 78 -6z"/>
<path d="M3495 1813 c10 -16 29 -43 41 -62 13 -19 20 -39 17 -45 -4 -6 -24
-37 -45 -68 l-39 -58 46 0 c42 0 48 3 66 35 12 19 25 35 30 35 5 0 17 -16 26
-35 16 -33 20 -35 65 -35 26 0 48 2 48 6 0 3 -18 32 -40 64 -22 32 -40 62 -40
65 0 3 16 29 35 58 19 28 35 55 35 59 0 5 -18 8 -40 8 -36 0 -43 -4 -62 -36
l-21 -36 -20 36 c-20 34 -24 36 -70 36 l-49 0 17 -27z"/>
<path d="M1928 1433 c-27 -7 -35 -53 -13 -70 11 -7 26 -13 36 -13 9 0 23 -7
30 -16 11 -14 10 -18 -6 -30 -24 -18 -30 -18 -50 2 -20 20 -33 11 -15 -11 16
-20 64 -19 84 1 27 27 13 53 -36 70 -36 12 -49 40 -22 51 9 3 25 1 36 -6 27
-16 38 -3 14 15 -20 14 -28 15 -58 7z"/>
<path d="M2090 1430 c0 -5 11 -10 25 -10 24 0 25 -2 25 -70 0 -40 4 -70 10
-70 6 0 10 30 10 70 0 63 2 70 20 70 11 0 20 5 20 10 0 6 -25 10 -55 10 -30 0
-55 -4 -55 -10z"/>
<path d="M2290 1378 c0 -75 14 -98 59 -98 43 0 61 28 61 93 0 77 -18 73 -22
-5 l-3 -63 -35 0 -35 0 -3 60 c-4 85 -22 95 -22 13z"/>
<path d="M2507 1433 c-4 -3 -7 -39 -7 -80 l0 -73 39 0 c68 0 99 47 77 117 -9
28 -91 55 -109 36z m83 -33 c38 -38 13 -100 -41 -100 -29 0 -29 0 -29 60 0 57
1 60 25 60 14 0 34 -9 45 -20z"/>
<path d="M2723 1360 c0 -47 2 -66 4 -42 2 23 2 61 0 85 -2 23 -4 4 -4 -43z"/>
<path d="M2864 1430 c-65 -26 -44 -150 25 -150 32 0 44 8 60 37 18 35 13 72
-14 98 -26 26 -37 29 -71 15z m60 -26 c19 -18 21 -75 4 -92 -7 -7 -24 -12 -40
-12 -45 0 -63 54 -32 98 18 26 46 28 68 6z"/>
<path d="M3068 1429 c-10 -5 -18 -21 -18 -35 0 -20 9 -29 45 -44 31 -13 43
-24 39 -34 -9 -23 -35 -28 -60 -11 -31 20 -37 19 -24 -5 12 -23 68 -28 88 -8
25 25 14 54 -30 74 -47 21 -52 31 -26 48 13 8 23 8 39 -2 27 -17 40 -5 15 14
-23 16 -44 17 -68 3z"/>
</g>
</svg>
